<?xml version="1.0" encoding="UTF-8" standalone="no"?>
<!-- Created with Inkscape (http://www.inkscape.org/) -->

<svg
   width="76.218521mm"
   height="48.971737mm"
   viewBox="0 0 76.218521 48.971737"
   version="1.1"
   id="svg5"
   inkscape:version="1.1.2 (b8e25be833, 2022-02-05)"
   sodipodi:docname="Background.svg"
   xmlns:inkscape="http://www.inkscape.org/namespaces/inkscape"
   xmlns:sodipodi="http://sodipodi.sourceforge.net/DTD/sodipodi-0.dtd"
   xmlns:xlink="http://www.w3.org/1999/xlink"
   xmlns="http://www.w3.org/2000/svg"
   xmlns:svg="http://www.w3.org/2000/svg">
  <sodipodi:namedview
     id="namedview7"
     pagecolor="#505050"
     bordercolor="#eeeeee"
     borderopacity="1"
     inkscape:pageshadow="0"
     inkscape:pageopacity="0"
     inkscape:pagecheckerboard="0"
     inkscape:document-units="mm"
     showgrid="false"
     fit-margin-top="0"
     fit-margin-left="0"
     fit-margin-right="0"
     fit-margin-bottom="0"
     inkscape:zoom="2.5620932"
     inkscape:cx="139.53435"
     inkscape:cy="103.82136"
     inkscape:window-width="1920"
     inkscape:window-height="1057"
     inkscape:window-x="-8"
     inkscape:window-y="-8"
     inkscape:window-maximized="1"
     inkscape:current-layer="layer1" />
  <defs
     id="defs2">
    <linearGradient
       x1="64.080002"
       y1="-14.227"
       x2="64.080002"
       y2="120.44"
       id="linearGradient4363"
       xlink:href="#linearGradient2898-6"
       gradientUnits="userSpaceOnUse" />
    <linearGradient
       x1="64.080002"
       y1="-14.227"
       x2="64.080002"
       y2="120.44"
       id="linearGradient2898-6"
       gradientUnits="userSpaceOnUse">
      <stop
         id="stop7227-8"
         style="stop-color:#ffd50a;stop-opacity:1"
         offset="0" />
      <stop
         id="stop7233-9"
         style="stop-color:#8d4000;stop-opacity:1"
         offset="1" />
    </linearGradient>
    <filter
       color-interpolation-filters="sRGB"
       id="filter3975-9"
       x="-0.025599577"
       y="-0.026791597"
       width="1.0511992"
       height="1.0535831">
      <feGaussianBlur
         stdDeviation="1.2948866"
         id="feGaussianBlur3977-1" />
    </filter>
    <radialGradient
       cx="69.527"
       cy="60.116001"
       r="111.65"
       fy="89.655998"
       id="radialGradient2906-2"
       gradientUnits="userSpaceOnUse"
       gradientTransform="matrix(0.9439139,-0.3301918,0.332644,0.9509241,-16.097695,27.249949)">
      <stop
         id="stop3292-6"
         style="stop-color:#808080;stop-opacity:1"
         offset="0" />
      <stop
         id="stop3294-6"
         style="stop-color:#787878;stop-opacity:1"
         offset="1" />
    </radialGradient>
    <linearGradient
       x1="63.949001"
       y1="12.034"
       x2="67.219002"
       y2="12.034"
       id="linearGradient3800-1"
       xlink:href="#linearGradient3363"
       gradientUnits="userSpaceOnUse"
       spreadMethod="reflect" />
    <linearGradient
       id="linearGradient3363">
      <stop
         id="stop3365"
         style="stop-color:#ffffff;stop-opacity:1"
         offset="0" />
      <stop
         id="stop3367"
         style="stop-color:#ffffff;stop-opacity:0"
         offset="1" />
    </linearGradient>
    <filter
       x="-0.17817996"
       y="-0.15507334"
       width="1.35636"
       height="1.3101467"
       color-interpolation-filters="sRGB"
       id="filter3838-0">
      <feGaussianBlur
         stdDeviation="0.46259975"
         id="feGaussianBlur3840-6" />
    </filter>
    <linearGradient
       x1="219.22"
       y1="11.902"
       x2="219.22"
       y2="136.86"
       id="linearGradient3315-4"
       gradientUnits="userSpaceOnUse"
       gradientTransform="translate(-170.08594)">
      <stop
         id="stop3311-9"
         style="stop-color:#c5c5c5;stop-opacity:1"
         offset="0" />
      <stop
         id="stop3313-5"
         style="stop-color:#ffffff;stop-opacity:0"
         offset="1" />
    </linearGradient>
    <linearGradient
       x1="177.42"
       y1="22.378"
       x2="177.60001"
       y2="93.023003"
       id="linearGradient3369-7"
       xlink:href="#linearGradient3363"
       gradientUnits="userSpaceOnUse" />
    <linearGradient
       x1="278.47"
       y1="77.652"
       x2="200.17999"
       y2="31.110001"
       id="linearGradient3345-0"
       gradientUnits="userSpaceOnUse"
       gradientTransform="translate(-37.771032,-0.1213203)">
      <stop
         id="stop1565-4"
         style="stop-color:#ffffff;stop-opacity:1"
         offset="0" />
      <stop
         id="stop1567-8"
         style="stop-color:#ffffff;stop-opacity:0"
         offset="1" />
    </linearGradient>
    <linearGradient
       x1="28.638"
       y1="120.85"
       x2="31.289"
       y2="122.09"
       id="linearGradient4365"
       xlink:href="#linearGradient3844"
       gradientUnits="userSpaceOnUse"
       spreadMethod="reflect" />
    <linearGradient
       id="linearGradient3844">
      <stop
         id="stop3846"
         style="stop-color:#faff64;stop-opacity:1"
         offset="0" />
      <stop
         id="stop3848"
         style="stop-color:#faff64;stop-opacity:0"
         offset="1" />
    </linearGradient>
    <filter
       color-interpolation-filters="sRGB"
       id="filter3928-5"
       x="-0.072205685"
       y="-0.088521697"
       width="1.1444114"
       height="1.1770434">
      <feGaussianBlur
         stdDeviation="0.18346262"
         id="feGaussianBlur3930-9" />
    </filter>
    <linearGradient
       x1="216.89"
       y1="122.59"
       x2="216.89"
       y2="37.970001"
       id="linearGradient4367"
       xlink:href="#linearGradient3385-1"
       gradientUnits="userSpaceOnUse"
       gradientTransform="translate(-152)" />
    <linearGradient
       x1="216.89"
       y1="122.59"
       x2="216.89"
       y2="37.970001"
       id="linearGradient3385-1"
       gradientUnits="userSpaceOnUse"
       gradientTransform="translate(-152)">
      <stop
         id="stop3381-7"
         style="stop-color:#fffc07;stop-opacity:1"
         offset="0" />
      <stop
         id="stop3383-2"
         style="stop-color:#fffc07;stop-opacity:0"
         offset="1" />
    </linearGradient>
    <filter
       color-interpolation-filters="sRGB"
       id="filter3391-7"
       x="-0.016215296"
       y="-0.017039513"
       width="1.0324312"
       height="1.034079">
      <feGaussianBlur
         stdDeviation="0.55939545"
         id="feGaussianBlur3393-2" />
    </filter>
    <filter
       color-interpolation-filters="sRGB"
       id="filter3401-2"
       x="-0.0049965959"
       y="-0.0052507659"
       width="1.0099936"
       height="1.0105015">
      <feGaussianBlur
         stdDeviation="0.11157909"
         id="feGaussianBlur3403-6" />
    </filter>
    <filter
       color-interpolation-filters="sRGB"
       id="filter2081"
       x="-0.072205685"
       y="-0.088521697"
       width="1.1444114"
       height="1.1770434">
      <feGaussianBlur
         stdDeviation="0.18346262"
         id="feGaussianBlur2079" />
    </filter>
    <radialGradient
       cx="64.080002"
       cy="114.47"
       r="60.701"
       id="radialGradient3956-4"
       gradientUnits="userSpaceOnUse"
       gradientTransform="matrix(0.2787307,0,0,0.2689969,46.218665,81.520439)">
      <stop
         id="stop3948-9"
         style="stop-color:#552b00;stop-opacity:1"
         offset="0" />
      <stop
         id="stop3950-0"
         style="stop-color:#673400;stop-opacity:0"
         offset="1" />
    </radialGradient>
    <radialGradient
       cx="507"
       cy="247.32001"
       r="144.03"
       id="radialGradient8817"
       gradientUnits="userSpaceOnUse"
       gradientTransform="matrix(1.4601052,-0.02281205,0.01234087,0.78988876,-597.27131,419.57459)">
      <stop
         id="stop7278"
         style="stop-color:#b74522;stop-opacity:1"
         offset="0" />
      <stop
         id="stop7280"
         style="stop-color:#381a07;stop-opacity:1"
         offset="1" />
    </radialGradient>
    <radialGradient
       cx="523.19"
       cy="663.72998"
       r="144.03"
       fx="512.04999"
       fy="714.47998"
       id="radialGradient6492"
       gradientUnits="userSpaceOnUse"
       gradientTransform="matrix(1.1682536,0.26592111,-0.16365108,0.71895734,-346.11718,83.471821)">
      <stop
         id="stop7270"
         style="stop-color:#fff8bc;stop-opacity:1"
         offset="0" />
      <stop
         id="stop7272"
         style="stop-color:#ffe45c;stop-opacity:0.81960785"
         offset="0.34797999" />
      <stop
         id="stop7282"
         style="stop-color:#ff7e00;stop-opacity:0.45882353"
         offset="0.67399001" />
      <stop
         id="stop7274"
         style="stop-color:#ff9d41;stop-opacity:0.1038961"
         offset="1" />
    </radialGradient>
  </defs>
  <g
     inkscape:label="Ebene 1"
     inkscape:groupmode="layer"
     id="layer1"
     transform="translate(-96.552769,-56.476581)">
    <g
       id="background"
       transform="matrix(0.26458333,0,0,0.26458333,87.022742,-90.58148)">
      <rect
         width="288.07001"
         height="185.07001"
         rx="0"
         ry="0"
         x="36.019001"
         y="555.83002"
         id="rect4442"
         style="fill:url(#radialGradient8817);fill-rule:evenodd" />
      <rect
         width="288.07001"
         height="185.07001"
         rx="0"
         ry="0"
         x="36.019001"
         y="555.83002"
         id="rect7892"
         style="fill:url(#radialGradient6492);fill-rule:evenodd" />
      <path
         d="m 56.848,730.61 c -4.6761,-4.9703 -12.129,8.6556 -14.3,3.8772 -3.9678,-5.8571 -7.9046,-13.983 0,-5.4799 10.246,5.7828 21.066,-8.7277 29.621,1.1013 12.752,11.053 -0.99237,9.1227 -4.0857,2.5072 -4.6855,-8.8955 -22.313,-28.94 -26.864,-29.568 6.691,2.8933 23.125,23.076 30.258,25.566 8.3279,4.5578 16.669,2.2185 24.185,5.7392 -3.7409,-1.5064 -15.131,-9.0529 -13.629,-2.3434 -7.2265,-7.7806 -26.746,-33.642 -35.373,-38.669 -9.8295,-7.1379 19.844,16.638 23.894,20.098 7.9262,6.5202 16.699,11.462 25.377,16.215 7.8376,6.869 17.133,-0.21714 25.661,3.6042 -2.9359,-6.9872 -14.926,-5.5226 -21.324,-12.489 -13.916,-11.565 -26.745,-25.317 -39.575,-38.925 -4.5286,-5.5129 -8.0585,-8.8853 -0.78033,-2.1549 11.417,10.952 23.551,20.946 36.794,27.334 10.337,7.831 22.573,11.595 31.641,21.986 -9.5852,-3.9082 -18.692,-11.171 -28.339,-15.773 -11.242,-5.3009 -41.966,-24.79 -52.734,-31.488 -3.6188,-2.6613 1.607,-4.6148 13.659,2.0516 15.306,3.6113 26.983,19.044 40.847,27.424 11.93,8.1779 24.011,15.967 36.695,21.77 9.3824,3.0439 19.857,-2.7738 28.686,0.49197 -1.7752,-10.64 -17.465,-7.949 -25.536,-12.697 -10.372,-3.1623 -19.223,-11.646 -29.079,-16.67 -9.1174,-6.383 -57.861,-40.495 -67.125,-45.104 -5.7196,-3.171 23.803,5.6069 36.961,12.454 9.1416,4.916 13.727,8.2578 22.998,14.689 5.9551,3.3959 15.737,13.686 16.307,18.984 -7.2225,-6.2608 -15.669,-10.518 -22.963,-17.233 -15.118,-11.06 -30.139,-24.07 -40.858,-42.46 -4.4544,-11.946 8.6526,3.1566 11.639,5.2187 9.1466,12.518 21.958,17.713 32.759,27.061 10.321,7.2717 21.241,12.889 31.177,21.176 12.905,8.5524 65.166,34.835 79.565,38.094 5.9949,1.5643 -20.818,1.484 -26.85,-2.9081 -17.286,-9.8553 -47.997,-30.66 -62.851,-46.586 -3.853,-2.715 -14.979,-15.309 -4.1404,-7.8471 15.368,9.689 29.815,21.767 45.082,31.668 6.7632,6.1272 17.034,14.406 26.173,18.303 3.682,2.9666 13.632,9.5814 3.7844,2.4622 -6.1271,-5.577 -13.758,-12.13 -20.904,-17.833 -7.6149,-5.2208 -14.643,-11.595 -21.447,-18.498 -3.3372,-2.4092 -14.783,-12.538 -12.563,-12.146 3.8909,1.0895 -7.9897,-9.7947 -10.441,-10.754 -5.3814,-2.0961 -5.4192,-7.2369 -0.14309,-2.0842 5.4163,2.9139 16.841,10.735 18.186,14.113 -10.444,-11.933 -22.742,-20.481 -33.87,-31.22 -7.7815,-7.6909 -18.855,-11.494 -22.471,-24.66 9.9811,-5.5918 20.736,3.5242 28.638,11.67 10.558,9.6114 19.352,22.173 29.729,32.141 10.629,13.568 23.191,24.08 35.508,34.64 12.62,8.9182 25.296,17.77 37.913,26.645 3.5305,3.7065 9.5564,8.5391 3.1346,0.64246 -13.544,-12.307 -28.105,-22.509 -42.852,-31.973 -15.021,-10.127 -30.824,-17.712 -46.626,-25.273 -13.753,-9.1666 -29.46,-10.929 -43.138,-20.434 -4.9999,-1.5587 -9.2502,-4.8986 -1.2842,-3.3993 9.8717,3.8874 18.758,11.957 27.311,19.549 9.5024,8.9866 20.575,14.465 30.91,21.55 -8.2627,-5.7221 -16.942,-12.678 -25.581,-18.39 -13.63,-10.73 -28.672,-18.73 -40.883,-32.37 -6.664,-5.21 -17.336,-27.04 -3.007,-25.95 9.9372,6.412 20.649,10.596 30.288,17.907 22.131,15.803 41.925,37.152 65.253,50.011 11.076,6.4214 22.406,12.068 32.645,20.794 4.4835,2.0436 20.685,17.846 7.7654,8.1946 -10.863,-9.0792 -22.011,-17.609 -33.81,-24.298 -15.825,-13.996 -32.398,-26.827 -46.89,-43.304 -7.1009,-8.1093 -15.614,-15.065 -23.878,-21.335 -10.35,-7.1983 -20.709,-14.411 -32.073,-18.305 -5.5491,-3.6256 -19.756,-8.9271 -19.73,-14.325 7.0038,-0.66055 13.79,0.70423 20.167,4.8243 19.855,6.9242 35.887,25.248 51.309,42.479 7.8296,9.0572 16.702,16.345 24.758,25.036 18.173,14.558 35.909,30.077 54.127,44.532 3.0301,4.8891 16.601,14.456 6.7011,3.6569 -7.2328,-9.5814 -16.287,-15.422 -24.777,-22.6 -10.02,-8.7547 -21.249,-14.811 -30.509,-25.182 -15.252,-11.721 -28.843,-27.008 -44.451,-37.901 -4.3654,-2.2848 -15.544,-10.557 -14.434,-14.257 8.98,3.2408 18.055,5.8994 25.911,13.191 19.082,10.369 35.819,26.662 53.353,40.786 17.631,12.857 33.727,29.27 52.117,40.249 10.578,7.6726 10.63,11.355 20.542,20.366 0.51898,0.0595 2.4477,-5.2264 -1.7664,-7.7748 -5.4262,-2.8982 -15.465,-7.424 -17.729,-11.333 10.195,3.6981 19.61,10.247 29.488,15.065 2.899,3.9648 9.5961,4.4814 8.0472,6.0306 -2.2086,-0.24693 20.894,6.9574 9.8637,-3.4939 -7.2674,-5.1908 -7.8546,-8.6091 -15.165,-13.7 -0.10721,0.83482 -11.676,-7.0888 -16.158,-10.116 -6.6343,-1.8376 11.893,8.816 15.448,9.9918 9.9858,3.5968 18.325,11.293 26.061,20.193 9.6876,12.481 -2.4804,-8.2591 -6.1496,-11.267 -17.682,-21.083 -39.06,-35.7 -60.264,-49.319 -21.854,-11.251 -44.375,-19.777 -67.105,-27.176 -9.0735,0.85469 -21.192,-14.191 -6.187,-17.72 9.0756,-6.3893 33.291,10.17 38.812,20.852 8.226,14.058 5.3585,12.663 14.504,25.518 4.5549,5.3191 15.314,11.928 15.89,17.706 -15.261,-6.954 -28.847,-19.161 -43.312,-28.533 -19.587,-18.219 -42.437,-30.087 -59.805,-52.464 -5.2672,-2.2623 -16.297,-22.124 -4.132,-16.272 1.7218,1.452 14.41,9.0181 7.4403,5.4968 14.807,13.945 41.909,36.797 57.651,48.528 7.1349,5.6803 -0.72807,-15.525 -7.8922,-19.775 -15.608,-14.708 -32.068,-27.831 -49.494,-38.216 -7.2115,-6.8686 -20.662,-12.436 -25.07,-16.583 21.882,8.5914 40.826,26.176 61.594,38.304 19.036,10.133 36.579,24.547 54.643,37.283 10.916,10.025 21.133,21.285 32.016,31.32 8.0914,3.4085 14.77,11.843 19.26,12.281 5.8149,4.0435 11.201,5.4685 4.0857,-2.7399 -4.8992,-4.8015 -6.8682,-7.9123 -13.311,-15.023 -8.8272,-12.437 -18.178,-24.684 -30.115,-31.517 -16.896,-12.997 -34.302,-24.751 -51.704,-36.487 -8.1106,-6.516 -17.112,-11.72 -24.375,-19.721 8.7028,4.1261 18.385,11.913 27.167,18.227 4.4189,3.0385 9.1142,5.2439 13.69,7.8026"
         id="path7935"
         style="color:#000000;fill:none;stroke:#ffffff;stroke-width:1.009;stroke-linecap:round;stroke-linejoin:round;stroke-miterlimit:4;stroke-dasharray:4.036, 8.072;stroke-dashoffset:0;stroke-opacity:0.0521739;enable-background:accumulate"
         inkscape:connector-curvature="0" />
      <path
         d="m 81.024,737.23 c -2.802,-2.71 -20.769,-10.04 -22.07,-12.64 -2.377,-3.19 -10.986,-16.24 -6.25,-11.61 6.1397,3.1487 26.624,13.998 31.751,19.35 7.6414,6.018 -0.59468,4.9672 -2.4484,1.3651 -2.8078,-4.8435 -7.6783,-7.5901 -10.406,-7.9322 4.0096,1.5754 8.1649,4.3971 12.439,5.7532 4.9905,2.4817 9.989,1.208 14.493,3.1249 -2.2417,-0.82022 -9.0672,-4.9292 -8.1669,-1.276 -4.3305,-4.2364 -8.3874,-8.6529 -13.557,-11.39 -5.8903,-3.8865 4.2511,-0.60529 6.6779,1.2785 4.7498,3.5502 10.007,6.2409 15.208,8.8286 4.6967,3.7401 10.267,-0.11822 15.377,1.9624 -1.7593,-3.8045 -8.9442,-3.007 -12.779,-6.8 -8.3392,-6.2968 -16.027,-13.785 -23.716,-21.194 -2.7138,-3.0017 -4.8291,-4.8379 -0.46762,-1.1733 6.8417,5.9634 14.113,11.405 22.049,14.883 6.1947,4.2639 13.527,6.3133 18.961,11.971 -5.744,-2.128 -11.201,-6.0822 -16.982,-8.5881 -6.7367,-2.8863 -13.013,-7.0999 -19.466,-10.747 -2.1686,-1.449 -11.172,-8.9104 -3.9498,-5.2807 9.1719,1.9663 16.17,10.369 24.478,14.932 7.1493,4.4528 14.389,8.6939 21.989,11.853 5.6225,1.6574 11.9,-1.5103 17.19,0.26787 -1.0638,-5.7933 -10.466,-4.3281 -15.302,-6.9133 -6.2156,-1.7218 -11.52,-6.3408 -17.426,-9.0765 -5.4636,-3.4755 -10.703,-8.5732 -16.255,-11.082 -3.4275,-1.7266 -9.706,-10.423 -1.821,-6.6949 5.4781,2.6767 8.2257,4.4962 13.782,7.9978 3.5686,1.849 9.4304,7.4519 9.7722,10.337 -4.3281,-3.409 -9.3898,-5.7271 -13.761,-9.3832 -9.0587,-6.0284 -18.06,-13.11 -24.484,-23.124 -2.6693,-6.5047 5.1851,1.7187 6.9747,2.8415 5.4811,6.8157 13.158,9.6444 19.631,14.734 6.1851,3.9593 12.729,7.0177 18.683,11.53 7.7333,4.6567 39.051,18.967 47.68,20.742 3.5924,0.85175 -12.475,0.80803 -16.09,-1.5834 -10.359,-5.3661 -28.762,-16.694 -37.663,-25.366 -2.3089,-1.4783 -8.9765,-8.3357 -2.4812,-4.2726 9.2096,5.2755 17.867,11.852 27.016,17.243 4.0529,3.3362 10.208,7.8438 15.684,9.9657 2.2064,1.6152 8.1693,5.217 2.2678,1.3406 -3.6717,-3.0366 -8.2448,-6.6047 -12.527,-9.7097 -4.5633,-2.8426 -8.7751,-6.3132 -12.852,-10.072 -1.9998,-1.3118 -8.8587,-6.827 -7.5282,-6.6134 2.3316,0.59324 -4.7879,-5.3331 -6.257,-5.8556 -3.2248,-1.1413 -3.2475,-3.9404 -0.0858,-1.1348 3.2457,1.5866 10.092,5.8449 10.898,7.6846 -6.2585,-6.4975 -13.628,-11.152 -20.297,-16.999 -4.6631,-4.1876 -11.299,-6.2583 -13.466,-13.427 5.9812,-3.0447 12.426,1.9189 17.161,6.3541 6.3267,5.2333 11.597,12.073 17.815,17.5 6.3697,7.3878 13.897,13.111 21.278,18.861 7.5623,4.8559 15.159,9.6756 22.72,14.508 2.1156,2.0181 5.7267,4.6494 1.8784,0.34981 -8.1165,-6.7012 -16.842,-12.256 -25.679,-17.409 -9.0016,-5.514 -18.471,-9.644 -27.941,-13.761 -8.2415,-4.9911 -17.654,-5.9509 -25.851,-11.126 -2.9962,-0.8487 -5.5432,-2.6672 -0.76958,-1.8509 5.9157,2.1167 11.241,6.5103 16.366,10.644 5.6944,4.8931 12.33,7.8762 18.523,11.734 -4.9514,-3.1156 -10.153,-6.9033 -15.33,-10.013 -8.1599,-5.8454 -17.173,-10.203 -24.491,-17.629 -3.993,-2.8356 -10.388,-14.723 -1.8017,-14.13 5.9549,3.4912 12.374,5.7695 18.15,9.75 13.262,8.6048 25.124,20.229 39.103,27.23 6.6375,3.4964 13.427,6.571 19.563,11.322 2.6867,1.1127 12.396,9.717 4.6534,4.4619 -6.5094,-4.9435 -13.19,-9.5879 -20.261,-13.23 -9.4834,-7.6205 -19.415,-14.607 -28.099,-23.578 -4.2552,-4.4154 -9.3569,-8.2028 -14.309,-11.617 -6.2025,-3.9194 -12.41,-7.8465 -19.22,-9.9668 -3.3253,-1.9741 -11.839,-4.8607 -11.823,-7.7996 4.197,-0.35967 8.2637,0.38344 12.085,2.6268 11.898,3.7701 21.505,13.747 30.747,23.13 4.6919,4.9315 10.008,8.8995 14.836,13.632 10.89,7.9267 21.519,16.377 32.436,24.247 1.8158,2.6621 9.948,7.8709 4.0157,1.9911 -4.3343,-5.2169 -9.7599,-8.397 -14.848,-12.305 -6.0045,-4.7668 -12.734,-8.0645 -18.283,-13.711 -9.1398,-6.3819 -17.284,-14.706 -26.637,-20.637 -2.616,-1.244 -9.3147,-5.748 -8.6494,-7.7627 5.3813,1.7646 10.82,3.2121 15.527,7.1826 11.435,5.6457 21.464,14.517 31.972,22.208 10.565,7.0003 20.211,15.937 31.231,21.915 6.3389,4.1777 13.256,7.1451 19.196,12.052 0.311,0.0324 -5.4189,-3.8083 -7.9442,-5.1958 -3.2516,-1.578 -9.2677,-4.0423 -10.624,-6.1708 6.1096,2.0136 11.751,5.5793 17.671,8.2028 1.7373,2.1588 9.8819,3.1138 8.9537,3.9574 -1.3235,-0.13444 12.521,3.7882 5.9108,-1.9024 -4.355,-2.8264 -8.8383,-5.3613 -13.219,-8.1334 -0.0642,0.45455 -6.9967,-3.8598 -9.6828,-5.5082 -3.9756,-1.0006 7.1267,4.8002 9.2573,5.4404 5.984,1.9584 10.982,6.1491 15.617,10.995 5.8053,6.7958 -1.4864,-4.497 -3.6852,-6.1346 -10.596,-11.479 -23.407,-19.438 -36.113,-26.854 -13.096,-6.1258 -26.592,-10.768 -40.213,-14.797 -5.4373,0.46538 -12.699,-7.7266 -3.7076,-9.6485 5.4386,-3.4789 11.263,-0.43004 14.572,5.3857 4.9294,7.6543 11.898,12.863 17.378,19.862 2.7296,2.8962 9.1768,6.4948 9.5222,9.6409 -9.1451,-3.7864 -17.287,-10.433 -25.955,-15.536 -11.738,-9.92 -25.431,-16.382 -35.838,-28.566 -3.1564,-1.2318 -9.7661,-12.046 -2.4761,-8.8599 1.0318,0.79059 8.6352,4.9102 4.4586,2.9929 8.873,7.593 19.182,11.95 28.616,18.338 4.2756,3.0929 5.496,-0.36782 1.2028,-2.6822 -9.3531,-8.0084 -19.217,-15.153 -29.659,-20.808 -4.3215,-3.7399 -12.382,-6.7713 -15.023,-9.0293 13.113,4.6779 24.465,14.252 36.91,20.856 11.408,5.5176 21.92,13.365 32.745,20.3 6.5412,5.4584 12.664,11.59 19.186,17.053 4.8488,1.8559 8.8509,6.4485 11.541,6.6868 3.4846,2.2016 6.7124,2.9775 2.4484,-1.4919 -2.9359,-2.6143 -4.1158,-4.3081 -7.9768,-8.1796 -5.2898,-6.7717 -10.893,-13.44 -18.047,-17.161 -10.125,-7.0767 -20.556,-13.477 -30.984,-19.867 -4.8603,-3.5479 -10.254,-6.3814 -14.607,-10.738 5.2152,2.2466 11.017,6.4864 16.28,9.9244 2.648,1.6544 5.4618,2.8552 8.2038,4.2484"
         id="path8810"
         style="color:#000000;fill:none;stroke:#ffffff;stroke-width:2;stroke-linecap:round;stroke-linejoin:round;stroke-miterlimit:4;stroke-dasharray:12, 12;stroke-dashoffset:0;stroke-opacity:0.0565217;enable-background:accumulate"
         inkscape:connector-curvature="0" />
      <path
         d="m 283.01,655.78 c -1.3157,0 -2.4975,0.56138 -3.3125,1.4688 -0.71771,-0.4954 -1.5932,-0.8125 -2.5312,-0.8125 -0.93805,0 -1.8135,0.3171 -2.5312,0.8125 -0.57667,-0.27281 -1.1947,-0.4375 -1.875,-0.4375 -2.4588,0 -4.4688,1.9787 -4.4688,4.4375 0,2.4588 2.0099,4.4375 4.4688,4.4375 0.2192,0 0.41428,-6.5e-4 0.625,-0.0312 0.27524,0.30661 0.58742,0.56048 0.9375,0.78125 -7e-5,0.0105 0,0.0208 0,0.0312 0,2.4588 1.9787,4.4375 4.4375,4.4375 1.8681,0 3.4956,-1.15 4.1562,-2.7812 0.94412,-0.13911 1.7838,-0.58446 2.4375,-1.2188 0.42645,2.014 2.2028,3.5312 4.3438,3.5312 1.1406,0 2.181,-0.45093 2.9688,-1.1562 0.14419,0.0141 0.28961,0.0312 0.4375,0.0312 0.80012,0 1.5386,-0.22425 2.1875,-0.59375 0.52534,0.21807 1.0833,0.34375 1.6875,0.34375 0.34185,0 0.68026,-0.0521 1,-0.125 0.35221,2.1069 2.1994,3.7188 4.4062,3.7188 2.4588,0 4.4375,-1.9787 4.4375,-4.4375 0,-1.8194 -1.0924,-3.4031 -2.6562,-4.0938 0.025,-0.19086 0.0625,-0.36483 0.0625,-0.5625 0,-1.4799 -0.73268,-2.7842 -1.8438,-3.5938 -0.74875,-1.4048 -2.2032,-2.375 -3.9062,-2.375 -1.9476,0 -3.5833,1.258 -4.1875,3 -0.37975,-0.10539 -0.77418,-0.1875 -1.1875,-0.1875 -1.1406,0 -2.181,0.45093 -2.9688,1.1562 -0.14419,-0.0141 -0.28961,-0.0312 -0.4375,-0.0312 -1.1668,0 -2.2061,0.4531 -3,1.1875 0.48004,-0.71056 0.75,-1.5779 0.75,-2.5 0,-2.4588 -1.9787,-4.4375 -4.4375,-4.4375 z m 26.688,20.531 c -1.0903,0 -2.0524,0.4381 -2.7188,1.0938 -1.5776,0.3423 -2.75,1.5956 -2.75,3.0625 0,1.7316 1.6172,3.125 3.625,3.125 0.35522,0 0.70674,-0.0743 1.0312,-0.15625 0.62135,0.42754 1.3933,0.6875 2.25,0.6875 2.0078,0 3.625,-1.3934 3.625,-3.125 0,-1.1133 -0.67345,-2.0687 -1.6875,-2.625 -0.51825,-1.1862 -1.8184,-2.0625 -3.375,-2.0625 z"
         id="path7267"
         style="color:#000000;fill:#ffee85;fill-rule:nonzero;stroke:none;enable-background:accumulate"
         inkscape:connector-curvature="0" />
      <path
         d="m 283.01,655.78 c -1.3157,0 -2.4975,0.56138 -3.3125,1.4688 -0.71771,-0.4954 -1.5932,-0.8125 -2.5312,-0.8125 -0.93805,0 -1.8135,0.3171 -2.5312,0.8125 -0.57667,-0.27281 -1.1947,-0.4375 -1.875,-0.4375 -2.4588,0 -4.4688,1.9787 -4.4688,4.4375 0,2.4588 2.0099,4.4375 4.4688,4.4375 0.2192,0 0.41428,-6.5e-4 0.625,-0.0312 0.27524,0.30661 0.58742,0.56048 0.9375,0.78125 -7e-5,0.0105 0,0.0208 0,0.0312 0,2.4588 1.9787,4.4375 4.4375,4.4375 1.8681,0 3.4956,-1.15 4.1562,-2.7812 0.94412,-0.13911 1.7838,-0.58446 2.4375,-1.2188 0.42645,2.014 2.2028,3.5312 4.3438,3.5312 1.1406,0 2.181,-0.45093 2.9688,-1.1562 0.14419,0.0141 0.28961,0.0312 0.4375,0.0312 0.80012,0 1.5386,-0.22425 2.1875,-0.59375 0.52534,0.21807 1.0833,0.34375 1.6875,0.34375 0.34185,0 0.68026,-0.0521 1,-0.125 0.35221,2.1069 2.1994,3.7188 4.4062,3.7188 2.4588,0 4.4375,-1.9787 4.4375,-4.4375 0,-1.8194 -1.0924,-3.4031 -2.6562,-4.0938 0.025,-0.19086 0.0625,-0.36483 0.0625,-0.5625 0,-1.4799 -0.73268,-2.7842 -1.8438,-3.5938 -0.74875,-1.4048 -2.2032,-2.375 -3.9062,-2.375 -1.9476,0 -3.5833,1.258 -4.1875,3 -0.37975,-0.10539 -0.77418,-0.1875 -1.1875,-0.1875 -1.1406,0 -2.181,0.45093 -2.9688,1.1562 -0.14419,-0.0141 -0.28961,-0.0312 -0.4375,-0.0312 -1.1668,0 -2.2061,0.4531 -3,1.1875 0.48004,-0.71056 0.75,-1.5779 0.75,-2.5 0,-2.4588 -1.9787,-4.4375 -4.4375,-4.4375 z m 26.688,20.531 c -1.0903,0 -2.0524,0.4381 -2.7188,1.0938 -1.5776,0.3423 -2.75,1.5956 -2.75,3.0625 0,1.7316 1.6172,3.125 3.625,3.125 0.35522,0 0.70674,-0.0743 1.0312,-0.15625 0.62135,0.42754 1.3933,0.6875 2.25,0.6875 2.0078,0 3.625,-1.3934 3.625,-3.125 0,-1.1133 -0.67345,-2.0687 -1.6875,-2.625 -0.51825,-1.1862 -1.8184,-2.0625 -3.375,-2.0625 z"
         id="path7306"
         style="color:#000000;fill:none;stroke:#ffe25e;stroke-width:3;stroke-linecap:round;stroke-linejoin:round;stroke-miterlimit:4;stroke-dasharray:none;stroke-dashoffset:0;stroke-opacity:0.526087;enable-background:accumulate"
         inkscape:connector-curvature="0" />
      <path
         d="m 283.97,688.22 c -0.42034,0 -0.82854,0.0807 -1.1875,0.1875 -0.17948,0.0534 -0.34284,0.11162 -0.5,0.1875 -0.15716,0.0759 -0.3073,0.15449 -0.4375,0.25 -0.45859,-0.20857 -1.0256,-0.34375 -1.625,-0.34375 -0.59939,0 -1.1664,0.13518 -1.625,0.34375 -0.36848,-0.11486 -0.75281,-0.1875 -1.1875,-0.1875 -1.5711,0 -2.8438,0.83977 -2.8438,1.875 0,1.03523 1.2726,1.875 2.8438,1.875 0.14006,0 0.2716,-0.0183 0.40625,-0.0312 0.17587,0.12909 0.37006,0.2508 0.59375,0.34375 0,1.0352 1.2726,1.875 2.8438,1.875 0.59684,0 1.1318,-0.1056 1.5938,-0.3125 0.23098,-0.10345 0.4495,-0.23303 0.625,-0.375 0.1755,-0.14197 0.33197,-0.29706 0.4375,-0.46875 0.60327,-0.0585 1.1136,-0.2642 1.5312,-0.53125 0.17031,0.52996 0.68454,0.98832 1.375,1.25 0.13809,0.0523 0.28598,0.0884 0.4375,0.125 0.30304,0.0731 0.62674,0.125 0.96875,0.125 0.72878,0 1.4029,-0.20304 1.9062,-0.5 0.0921,0.006 0.18675,0.0312 0.28125,0.0312 0.51125,0 0.99164,-0.0944 1.4062,-0.25 0.33568,0.0918 0.67641,0.125 1.0625,0.125 0.21843,0 0.45196,-5.5e-4 0.65625,-0.0312 0.0281,0.11088 0.0684,0.20905 0.125,0.3125 0.0566,0.10345 0.10533,0.18707 0.1875,0.28125 0.493,0.56509 1.4424,0.96875 2.5,0.96875 0.19639,0 0.37757,-0.006 0.5625,-0.0312 0.18493,-0.0248 0.36152,-0.0779 0.53125,-0.125 1.0184,-0.28283 1.7188,-0.94233 1.7188,-1.7188 0,-0.19151 -0.0439,-0.38773 -0.125,-0.5625 -0.0405,-0.0874 -0.0665,-0.16842 -0.125,-0.25 -0.29232,-0.40792 -0.81298,-0.72451 -1.4375,-0.90625 0.016,-0.0803 0.0312,-0.16677 0.0312,-0.25 0,-0.31154 -0.10672,-0.58597 -0.3125,-0.84375 -0.10289,-0.12889 -0.23127,-0.26585 -0.375,-0.375 -0.14373,-0.10915 -0.29127,-0.19604 -0.46875,-0.28125 -0.47842,-0.59146 -1.4118,-1 -2.5,-1 -1.2445,0 -2.3014,0.51659 -2.6875,1.25 -0.24265,-0.0444 -0.48591,-0.0625 -0.75,-0.0625 -0.5466,0 -1.0665,0.10257 -1.5,0.28125 -0.1445,0.0596 -0.28042,0.11326 -0.40625,0.1875 -0.0921,-0.006 -0.18675,0 -0.28125,0 -0.74552,0 -1.399,0.1908 -1.9062,0.5 0.30674,-0.29917 0.46875,-0.6743 0.46875,-1.0625 0,-1.0352 -1.2414,-1.875 -2.8125,-1.875 z m 17.03,8.66 c -0.69667,0 -1.293,0.1927 -1.7188,0.46875 -1.0081,0.14411 -1.7812,0.66365 -1.7812,1.2812 0,0.72904 1.0609,1.3125 2.3438,1.3125 0.22697,0 0.4489,-0.028 0.65625,-0.0625 0.39703,0.18001 0.89013,0.28125 1.4375,0.28125 0.96218,0 1.7742,-0.30869 2.125,-0.78125 0.11692,-0.15752 0.1875,-0.34899 0.1875,-0.53125 0,-0.46873 -0.44581,-0.85952 -1.0938,-1.0938 -0.33114,-0.4994 -1.1616,-0.875 -2.1562,-0.875 z"
         id="path7308"
         style="color:#000000;fill:#000000;fill-opacity:0.317391;fill-rule:nonzero;stroke:none;enable-background:accumulate"
         inkscape:connector-curvature="0" />
      <path
         d="m 258.48,613.3 c -2.065,0 -3.8254,1.3302 -4.4798,3.1706 -0.0968,-0.0348 -0.18677,-0.0737 -0.28639,-0.10228 -0.85357,-1.2635 -2.3084,-2.0865 -3.948,-2.0865 -2.6232,0 -4.7457,2.1225 -4.7457,4.7457 0,1.0678 0.36658,2.05 0.96142,2.8433 0.0226,0.26735 0.0577,0.52444 0.12273,0.77732 -0.87051,-0.99104 -2.1366,-1.616 -3.5593,-1.616 -1.6658,0 -3.1205,0.85013 -3.9684,2.1478 -0.12722,-0.0102 -0.2588,-0.0204 -0.38866,-0.0204 -0.94118,0 -1.8189,0.28464 -2.557,0.75686 -0.82419,-0.68846 -1.89,-1.1046 -3.0479,-1.1046 -1.9346,0 -3.5961,1.1634 -4.3366,2.8229 -0.44068,-0.13504 -0.90607,-0.22501 -1.391,-0.22501 -2.6232,0 -4.7457,2.1429 -4.7457,4.7662 0,2.6232 2.1225,4.7457 4.7457,4.7457 0.70945,0 1.3796,-0.15074 1.9842,-0.42957 0.54869,2.0168 2.3914,3.5184 4.5821,3.5184 1.0455,0 2.0179,-0.34809 2.8024,-0.92051 0.43523,2.1743 2.3616,3.8048 4.6639,3.8048 0.37143,0 0.71681,-0.0421 1.0637,-0.12273 0.74055,1.6595 2.402,2.8229 4.3366,2.8229 0.67157,0 1.3028,-0.13726 1.8819,-0.38866 0.27754,0.0505 0.54658,0.0818 0.83869,0.0818 1.465,0 2.7903,-0.65521 3.6616,-1.6978 0.0811,0.004 0.16335,0.0204 0.24547,0.0204 0.85223,0 1.6404,-0.22067 2.332,-0.61367 0.14679,-0.024 0.28763,-0.0651 0.42957,-0.10228 -0.0528,0.28364 -0.0818,0.56018 -0.0818,0.85914 0,2.6232 2.143,4.7662 4.7662,4.7662 0.71274,0 1.3775,-0.16874 1.9842,-0.45002 0.87127,1.0296 2.1662,1.6774 3.6207,1.6774 2.6232,0 4.7457,-2.1225 4.7457,-4.7457 0,-0.27827 -0.0359,-0.55309 -0.0818,-0.81823 0.14537,-0.10819 0.28063,-0.21847 0.40911,-0.34775 0.23563,0.15385 0.48135,0.28662 0.75686,0.38866 1.7078,0.63248 3.5926,-0.0338 4.5003,-1.4933 0.42798,0.63123 1.045,1.1652 1.8206,1.4524 1.625,0.6018 3.4076,0.005 4.3571,-1.3092 0.37343,0.36858 0.82384,0.66425 1.3501,0.85914 1.9458,0.72064 4.0811,-0.24274 4.7866,-2.1478 0.70555,-1.9051 -0.28385,-4.0251 -2.2297,-4.7457 -0.36484,-0.13512 -0.73631,-0.20322 -1.1046,-0.22501 -0.10345,-1.4081 -1.0201,-2.7212 -2.4547,-3.2525 -0.85888,-0.31809 -1.7604,-0.29404 -2.557,-0.0204 -0.42044,-0.54568 -0.97923,-1.0097 -1.6774,-1.2682 -0.0963,-0.0357 -0.20972,-0.0543 -0.30684,-0.0818 -0.1229,-0.51616 -0.36822,-0.99032 -0.69549,-1.4114 0.30773,-0.62921 0.49094,-1.3184 0.49094,-2.066 0,-2.3383 -1.6821,-4.2897 -3.907,-4.6844 -0.4264,-0.6064 -1.0461,-1.0913 -1.8001,-1.3705 -0.73212,-0.27114 -1.4854,-0.3064 -2.1888,-0.14319 -0.011,-2.6138 -2.1293,-4.7253 -4.7457,-4.7253 -0.93372,0 -1.8022,0.27107 -2.5365,0.7364 -0.69243,-1.7662 -2.4067,-3.0274 -4.4184,-3.0274 z"
         id="path7561"
         style="color:#000000;fill:#000000;fill-opacity:0.317391;fill-rule:nonzero;stroke:none;enable-background:accumulate"
         inkscape:connector-curvature="0" />
      <path
         d="m 260.06,569.56 c -3.1546,0 -5.844,2.0321 -6.8438,4.8438 -0.14791,-0.0531 -0.28532,-0.11263 -0.4375,-0.15625 -1.304,-1.9302 -3.5266,-3.1875 -6.0312,-3.1875 -4.0075,0 -7.25,3.2425 -7.25,7.25 0,1.6314 0.56002,3.1318 1.4688,4.3438 0.0345,0.40842 0.0881,0.80117 0.1875,1.1875 -1.3299,-1.514 -3.264,-2.4688 -5.4375,-2.4688 -2.5449,0 -4.7672,1.2987 -6.0625,3.2812 -0.19436,-0.0156 -0.39537,-0.0312 -0.59375,-0.0312 -1.4378,0 -2.7788,0.43485 -3.9062,1.1562 -1.2591,-1.0518 -2.8874,-1.6875 -4.6562,-1.6875 -2.9555,0 -5.4937,1.7773 -6.625,4.3125 -0.67322,-0.2063 -1.3842,-0.34375 -2.125,-0.34375 -4.0075,0 -7.25,3.2738 -7.25,7.2812 0,4.0075 3.2425,7.25 7.25,7.25 1.0838,0 2.1077,-0.23027 3.0312,-0.65625 0.83822,3.0811 3.6534,5.375 7,5.375 1.5972,0 3.0827,-0.53178 4.2812,-1.4062 0.66489,3.3216 3.6077,5.8125 7.125,5.8125 0.56743,0 1.0951,-0.0643 1.625,-0.1875 1.1313,2.5352 3.6695,4.3125 6.625,4.3125 1.026,0 1.9903,-0.20969 2.875,-0.59375 0.42399,0.0771 0.835,0.125 1.2812,0.125 2.2381,0 4.2627,-1.001 5.5938,-2.5938 0.12389,0.006 0.24955,0.0312 0.375,0.0312 1.3019,0 2.5061,-0.33711 3.5625,-0.9375 0.22426,-0.0367 0.43941,-0.0995 0.65625,-0.15625 -0.0807,0.43332 -0.125,0.85579 -0.125,1.3125 0,4.0075 3.2738,7.2812 7.2812,7.2812 1.0888,0 2.1044,-0.25779 3.0312,-0.6875 1.331,1.573 3.3093,2.5625 5.5312,2.5625 4.0075,0 7.25,-3.2425 7.25,-7.25 0,-0.42511 -0.0549,-0.84494 -0.125,-1.25 0.22208,-0.16528 0.42872,-0.33376 0.625,-0.53125 0.35996,0.23504 0.73535,0.43787 1.1562,0.59375 2.609,0.96623 5.4884,-0.0516 6.875,-2.2812 0.65382,0.96432 1.5965,1.78 2.7812,2.2188 2.4824,0.91937 5.2058,0.007 6.6562,-2 0.57049,0.56308 1.2586,1.0148 2.0625,1.3125 2.9726,1.1009 6.2346,-0.37083 7.3125,-3.2812 1.0779,-2.91037 -0.43364,-6.1491 -3.4062,-7.25 -0.55737,-0.20642 -1.1249,-0.31046 -1.6875,-0.34375 -0.15805,-2.1512 -1.5584,-4.1571 -3.75,-4.9688 -1.3121,-0.48593 -2.6894,-0.44919 -3.9062,-0.0312 -0.6423,-0.83364 -1.496,-1.5425 -2.5625,-1.9375 -0.14715,-0.0545 -0.32038,-0.083 -0.46875,-0.125 -0.18776,-0.78854 -0.56253,-1.5129 -1.0625,-2.1562 0.47012,-0.96124 0.75,-2.0141 0.75,-3.1562 0,-3.5722 -2.5697,-6.5533 -5.9688,-7.1562 -0.65141,-0.92639 -1.5981,-1.6672 -2.75,-2.0938 -1.1184,-0.41422 -2.2692,-0.46809 -3.3438,-0.21875 -0.0168,-3.9931 -3.2529,-7.2188 -7.25,-7.2188 -1.4264,0 -2.7531,0.41411 -3.875,1.125 -1.0578,-2.6982 -3.6767,-4.625 -6.75,-4.625 z"
         id="path7332"
         style="color:#000000;fill:#fff29e;fill-rule:nonzero;stroke:none;enable-background:accumulate"
         inkscape:connector-curvature="0" />
      <path
         d="m 260.06,569.56 c -3.1546,0 -5.844,2.0321 -6.8438,4.8438 -0.14791,-0.0531 -0.28532,-0.11263 -0.4375,-0.15625 -1.304,-1.9302 -3.5266,-3.1875 -6.0312,-3.1875 -4.0075,0 -7.25,3.2425 -7.25,7.25 0,1.6314 0.56002,3.1318 1.4688,4.3438 0.0345,0.40842 0.0881,0.80117 0.1875,1.1875 -1.3299,-1.514 -3.264,-2.4688 -5.4375,-2.4688 -2.5449,0 -4.7672,1.2987 -6.0625,3.2812 -0.19436,-0.0156 -0.39537,-0.0312 -0.59375,-0.0312 -1.4378,0 -2.7788,0.43485 -3.9062,1.1562 -1.2591,-1.0518 -2.8874,-1.6875 -4.6562,-1.6875 -2.9555,0 -5.4937,1.7773 -6.625,4.3125 -0.67322,-0.2063 -1.3842,-0.34375 -2.125,-0.34375 -4.0075,0 -7.25,3.2738 -7.25,7.2812 0,4.0075 3.2425,7.25 7.25,7.25 1.0838,0 2.1077,-0.23027 3.0312,-0.65625 0.83822,3.0811 3.6534,5.375 7,5.375 1.5972,0 3.0827,-0.53178 4.2812,-1.4062 0.66489,3.3216 3.6077,5.8125 7.125,5.8125 0.56743,0 1.0951,-0.0643 1.625,-0.1875 1.1313,2.5352 3.6695,4.3125 6.625,4.3125 1.026,0 1.9903,-0.20969 2.875,-0.59375 0.42399,0.0771 0.835,0.125 1.2812,0.125 2.2381,0 4.2627,-1.001 5.5938,-2.5938 0.12389,0.006 0.24955,0.0312 0.375,0.0312 1.3019,0 2.5061,-0.33711 3.5625,-0.9375 0.22426,-0.0367 0.43941,-0.0995 0.65625,-0.15625 -0.0807,0.43332 -0.125,0.85579 -0.125,1.3125 0,4.0075 3.2738,7.2812 7.2812,7.2812 1.0888,0 2.1044,-0.25779 3.0312,-0.6875 1.331,1.573 3.3093,2.5625 5.5312,2.5625 4.0075,0 7.25,-3.2425 7.25,-7.25 0,-0.42511 -0.0549,-0.84494 -0.125,-1.25 0.22208,-0.16528 0.42872,-0.33376 0.625,-0.53125 0.35996,0.23504 0.73535,0.43787 1.1562,0.59375 2.609,0.96623 5.4884,-0.0516 6.875,-2.2812 0.65382,0.96432 1.5965,1.78 2.7812,2.2188 2.4824,0.91937 5.2058,0.007 6.6562,-2 0.57049,0.56308 1.2586,1.0148 2.0625,1.3125 2.9726,1.1009 6.2346,-0.37083 7.3125,-3.2812 1.0779,-2.91037 -0.43364,-6.1491 -3.4062,-7.25 -0.55737,-0.20642 -1.1249,-0.31046 -1.6875,-0.34375 -0.15805,-2.1512 -1.5584,-4.1571 -3.75,-4.9688 -1.3121,-0.48593 -2.6894,-0.44919 -3.9062,-0.0312 -0.6423,-0.83364 -1.496,-1.5425 -2.5625,-1.9375 -0.14715,-0.0545 -0.32038,-0.083 -0.46875,-0.125 -0.18776,-0.78854 -0.56253,-1.5129 -1.0625,-2.1562 0.47012,-0.96124 0.75,-2.0141 0.75,-3.1562 0,-3.5722 -2.5697,-6.5533 -5.9688,-7.1562 -0.65141,-0.92639 -1.5981,-1.6672 -2.75,-2.0938 -1.1184,-0.41422 -2.2692,-0.46809 -3.3438,-0.21875 -0.0168,-3.9931 -3.2529,-7.2188 -7.25,-7.2188 -1.4264,0 -2.7531,0.41411 -3.875,1.125 -1.0578,-2.6982 -3.6767,-4.625 -6.75,-4.625 z"
         id="path7538"
         style="color:#000000;fill:none;stroke:#ffe25e;stroke-width:5;stroke-linecap:round;stroke-linejoin:round;stroke-miterlimit:4;stroke-dasharray:none;stroke-dashoffset:0;stroke-opacity:0.526087;enable-background:accumulate"
         inkscape:connector-curvature="0" />
      <path
         d="m 115.56,637.53 c -0.35,0.02 -0.69,0.06 -1.06,0.13 -2.25,0.37 -4.25,1.52 -5.56,3.03 -0.13,0.01 -0.25,0.01 -0.38,0.03 -1.94,0.33 -3.71,1.25 -5,2.47 -1.14,-1.73 -3.615,-2.64 -6.466,-2.16 -3.943,0.66 -7.125,3.71 -7.125,6.85 0,0.6 0.124,1.14 0.343,1.65 -3.208,0.67 -5.848,2.94 -6.562,5.47 -2.315,0.93 -4.16,2.67 -4.844,4.62 -0.721,0.42 -1.386,0.91 -1.937,1.47 -1.089,-0.35 -2.378,-0.41 -3.75,-0.18 -1.173,0.19 -2.274,0.59 -3.25,1.15 0.003,-0.07 0,-0.14 0,-0.22 0,-3.13 -3.213,-5.13 -7.157,-4.46 -0.068,0.01 -0.119,0.04 -0.187,0.06 v -0.06 c 0,-3.14 -3.213,-5.14 -7.156,-4.47 -2.75,0.46 -5.12,2.08 -6.313,4.09 -1.104,-0.37 -2.407,-0.49 -3.812,-0.25 -3.943,0.66 -7.125,3.74 -7.125,6.87 0,0.36 0.045,0.68 0.125,1 -1.078,0.89 -1.893,1.98 -2.313,3.13 v 3.28 c 0.111,0.27 0.214,0.54 0.375,0.78 -0.13,0.05 -0.248,0.11 -0.375,0.16 v 18.69 c 0.699,0.17 1.47,0.25 2.281,0.22 -0.883,0.51 -1.664,1.15 -2.281,1.87 v 7.03 c 0.599,0.5 1.337,0.87 2.188,1.1 -0.84,0.46 -1.574,1.04 -2.188,1.68 v 7.56 c 1.308,0.95 3.193,1.36 5.313,1 3.415,-0.57 6.265,-2.96 6.968,-5.62 2.454,-0.48 4.592,-1.9 5.813,-3.66 0.888,2.18 3.653,3.42 6.875,2.88 3.943,-0.66 7.125,-3.74 7.125,-6.88 0,-0.52 -0.113,-1.01 -0.281,-1.46 1.034,0.28 2.228,0.36 3.5,0.15 3.943,-0.66 7.156,-3.74 7.156,-6.87 0,-1.15 -0.448,-2.14 -1.188,-2.91 0.489,0 1.012,-0.04 1.532,-0.13 3.943,-0.66 7.125,-3.74 7.125,-6.87 0,-1.7 -0.92,-3.05 -2.407,-3.84 1.754,-1.33 2.876,-3.17 2.876,-5.03 0,-0.92 -0.265,-1.73 -0.75,-2.41 0.009,-0.01 0.021,-0.03 0.031,-0.03 0.995,0.25 2.108,0.29 3.312,0.09 2.691,-0.45 5.033,-2.02 6.25,-3.97 1.219,1.54 3.563,2.33 6.249,1.88 3.94,-0.66 7.13,-3.71 7.13,-6.85 0,-0.06 -0.03,-0.12 -0.04,-0.18 0.18,-0.12 0.37,-0.22 0.54,-0.35 0.5,0.01 1.02,-0.06 1.56,-0.15 2.67,-0.45 4.99,-1.98 6.22,-3.91 1.26,0.69 2.91,0.96 4.75,0.66 2.58,-0.44 4.87,-1.91 6.12,-3.75 0.88,0.16 1.85,0.2 2.88,0.03 3.94,-0.66 7.12,-3.75 7.12,-6.88 0,-3.13 -3.18,-5.13 -7.12,-4.47 -2.59,0.44 -4.87,1.88 -6.13,3.72 -0.84,-0.15 -1.77,-0.18 -2.75,-0.03 0.32,-0.69 0.5,-1.39 0.5,-2.12 0,-2.74 -2.43,-4.61 -5.69,-4.6 -0.33,-0.02 -0.7,-0.05 -1.06,-0.03 z"
         id="path7702"
         style="color:#000000;fill:#000000;fill-opacity:0.221739;fill-rule:nonzero;stroke:none;enable-background:accumulate"
         inkscape:connector-curvature="0" />
      <path
         d="m 130.84,577.25 c -2.83,0 -5.35,1.3 -7,3.34 -0.16,0 -0.3,-0.03 -0.46,-0.03 -2.46,0 -4.69,0.97 -6.32,2.56 -1.44,-3.04 -4.53,-5.15 -8.12,-5.15 -4.97,0 -9.002,4.03 -9.002,9 0,0.95 0.162,1.85 0.442,2.72 -4.049,0.21 -7.386,3.08 -8.286,6.9 -2.918,0.86 -5.232,3.15 -6.094,6.07 -0.91,0.47 -1.743,1.07 -2.438,1.81 -1.371,-0.85 -3.019,-1.31 -4.75,-1.31 -1.478,0 -2.863,0.33 -4.093,0.96 0.004,-0.11 0,-0.22 0,-0.34 0,-4.97 -4.03,-9 -9,-9 -0.086,0 -0.165,0.03 -0.25,0.03 v -0.09 c 0,-4.97 -4.03,-9 -9,-9 -3.466,0 -6.465,1.94 -7.969,4.81 -1.392,-0.88 -3.042,-1.41 -4.812,-1.41 -3.237,0 -6.071,1.72 -7.657,4.29 V 674 c 0.827,0.25 1.717,0.38 2.625,0.38 4.305,0 7.895,-3.03 8.782,-7.07 3.092,-0.1 5.773,-1.78 7.312,-4.25 1.119,3.7 4.594,6.38 8.656,6.38 4.971,0 9,-4.03 9,-9 0,-0.84 -0.132,-1.64 -0.344,-2.41 1.304,0.74 2.804,1.16 4.407,1.16 4.97,0 9,-4.03 9,-9 0,-1.83 -0.537,-3.52 -1.469,-4.94 0.615,0.13 1.251,0.22 1.906,0.22 4.971,0 9,-4.03 9,-9 0,-2.69 -1.189,-5.1 -3.062,-6.75 2.21,-1.64 3.656,-4.26 3.656,-7.22 0,-1.45 -0.357,-2.82 -0.969,-4.03 0.013,-0.01 0.019,-0.03 0.031,-0.03 1.255,0.66 2.67,1.06 4.188,1.06 3.39,0 6.34,-1.88 7.87,-4.66 1.54,2.77 4.49,4.66 7.88,4.66 4.97,0 9,-4.03 9,-9 0,-0.1 -0.03,-0.19 -0.03,-0.28 0.22,-0.13 0.45,-0.26 0.65,-0.41 0.64,0.14 1.3,0.19 1.97,0.19 3.37,0 6.3,-1.83 7.85,-4.56 1.59,1.44 3.68,2.31 6,2.31 3.25,0 6.1,-1.73 7.68,-4.31 1.12,0.49 2.34,0.78 3.63,0.78 4.97,0 9,-4.03 9,-9 0,-4.97 -4.03,-9 -9,-9 -3.26,0 -6.11,1.72 -7.69,4.31 -1.06,-0.47 -2.23,-0.76 -3.47,-0.78 0.4,-1.02 0.63,-2.12 0.63,-3.28 0,-4.35 -3.09,-7.97 -7.19,-8.81 -0.84,-0.27 -1.75,-0.41 -2.69,-0.41 z"
         id="path7584"
         style="color:#000000;fill:#fff29e;fill-rule:nonzero;stroke:none;enable-background:accumulate"
         inkscape:connector-curvature="0" />
      <path
         d="m 39.031,674 c 0.291613,0.12874 0.01833,0.375 2.625,0.375 2.60667,0 4.8945,-3.0239 5.7812,-7.0625 3.0928,-0.10437 5.7735,-1.7871 7.3125,-4.25 1.1194,3.6966 4.5942,6.375 8.6562,6.375 4.9706,0 9,-4.0294 9,-9 0,-0.83278 -0.13206,-1.6408 -0.34375,-2.4062 1.3038,0.73475 2.8031,1.1562 4.4062,1.1562 4.9706,0 9,-4.0294 9,-9 0,-1.8237 -0.53641,-3.5197 -1.4688,-4.9375 0.61547,0.13298 1.251,0.21875 1.9062,0.21875 4.9706,0 9,-4.0294 9,-9 0,-2.6922 -1.189,-5.1007 -3.0625,-6.75 2.212,-1.64 3.658,-4.26 3.658,-7.22 0,-1.4531 -0.35716,-2.8162 -0.96875,-4.0312 0.01247,-0.007 0.01881,-0.0243 0.03125,-0.0312 1.2546,0.66379 2.6693,1.0625 4.1875,1.0625 3.3923,0 6.3411,-1.8843 7.875,-4.6562 1.5359,2.7648 4.488,4.6562 7.875,4.6562 4.9706,0 9,-4.0294 9,-9 0,-0.0967 -0.0282,-0.18529 -0.0312,-0.28125 0.22081,-0.13326 0.44835,-0.25509 0.65625,-0.40625 0.63302,0.1411 1.2932,0.1875 1.9688,0.1875 3.3658,0 6.2999,-1.8261 7.8438,-4.5625 1.5954,1.4393 3.6821,2.3125 6,2.3125 3.2541,0 6.1067,-1.725 7.6875,-4.3125 1.1111,0.49078 2.3323,0.78125 3.625,0.78125 4.9706,0 9,-4.0294 9,-9 0,-4.9706 -4.0294,-9 -9,-9 -3.257,0 -6.1076,1.7212 -7.6875,4.3125 -1.0657,-0.47008 -2.2341,-0.76049 -3.4688,-0.78125 0.40003,-1.0186 0.625,-2.1207 0.625,-3.2812 0,-4.3492 -3.0864,-7.9733 -7.1875,-8.8125 -0.84545,-0.26296 -1.7555,-0.40625 -2.6875,-0.40625 -2.8351,0 -5.3503,1.2951 -7,3.3438 -0.15879,-0.008 -0.30789,-0.0312 -0.46875,-0.0312 -2.4534,0 -4.689,0.97047 -6.3125,2.5625 -1.4424,-3.046 -4.5309,-5.1562 -8.125,-5.1562 -4.9706,0 -9,4.0294 -9,9 0,0.95596 0.16138,1.8544 0.4375,2.7188 -4.0439,0.21203 -7.3807,3.0845 -8.2812,6.9062 -2.918,0.86085 -5.2315,3.1451 -6.0938,6.0625 -0.90966,0.47222 -1.7426,1.0719 -2.4375,1.8125 -1.3719,-0.84617 -3.0198,-1.3125 -4.75,-1.3125 -1.4782,0 -2.8633,0.33727 -4.0938,0.96875 0.0042,-0.11276 0,-0.22997 0,-0.34375 0,-4.9706 -4.0294,-9 -9,-9 -0.08603,0 -0.16455,0.029 -0.25,0.0312 3.35e-4,-0.032 0,-0.0616 0,-0.0937 0,-4.9706 -4.0294,-9 -9,-9 -3.4658,0 -6.465,1.9414 -7.9688,4.8125 -1.3924,-0.88335 -3.0415,-1.4062 -4.8125,-1.4062 -3.237,0 -4.651587,4.07587 -4.6562,4.2812"
         id="path7679"
         style="color:#000000;fill:none;stroke:#ffe25e;stroke-width:5;stroke-linecap:round;stroke-linejoin:round;stroke-miterlimit:4;stroke-dasharray:none;stroke-dashoffset:0;stroke-opacity:0.526087;enable-background:accumulate"
         inkscape:connector-curvature="0"
         sodipodi:nodetypes="csccsscsscsscsccscssccscscsssccscscscssccccscsscsscsc" />
      <path
         d="m 155.16,556.39 c 0.16896,2.2541 1.6938,4.1822 3.166,4.487 1.426,0.29531 2.572,-1.6141 2.7996,-3.6866 0.20661,0.11614 0.43535,0.23555 0.65625,0.28125 0.39044,0.0809 0.75429,0.0241 1.0938,-0.125 0.41929,0.45856 0.88923,0.76793 1.4062,0.875 0.0956,0.0201 0.18805,0.0263 0.28125,0.0312 0.50901,0.81498 1.2005,1.4099 1.9375,1.5625 1.3835,0.28649 2.5369,-0.99969 2.8125,-2.9688 0.42239,0.72558 0.95243,1.2962 1.5625,1.5625 0.42688,1.7294 1.4804,3.0938 2.6875,3.3438 1.5888,0.32902 2.875,-1.4014 2.875,-3.875 0,-0.0105 4e-5,-0.0207 0,-0.0312 0.22621,-0.17525 0.4159,-0.38462 0.59375,-0.65625 0.13616,0.0589 0.26461,0.0957 0.40625,0.125 1.0007,0.20723 2.3738,0.12564 2.8924,-0.96967 l -25.17,0.0442 z"
         id="path7727"
         style="color:#000000;fill:none;stroke:#ffe25e;stroke-width:1;stroke-linecap:round;stroke-linejoin:round;stroke-miterlimit:4;stroke-dasharray:none;stroke-dashoffset:0;stroke-opacity:0.526087;enable-background:accumulate"
         inkscape:connector-curvature="0" />
      <path
         d="m 155.47,555.81 c 0.17,2.26 1.34,4.23 2.81,4.53 1.43,0.3 2.62,-1.08 2.84,-3.15 0.21,0.11 0.44,0.23 0.66,0.28 0.39,0.08 0.76,0.02 1.1,-0.13 0.41,0.46 0.88,0.77 1.4,0.88 0.1,0.02 0.19,0.02 0.28,0.03 0.51,0.81 1.2,1.41 1.94,1.56 1.38,0.29 2.54,-1 2.81,-2.97 0.42,0.73 0.95,1.3 1.57,1.57 0.42,1.73 1.48,3.09 2.68,3.34 1.59,0.33 2.88,-1.4 2.88,-3.87 v -0.04 c 0.22,-0.17 0.41,-0.38 0.59,-0.65 0.14,0.06 0.27,0.09 0.41,0.12 1,0.21 1.89,-0.4 2.4,-1.5 z"
         id="path7725"
         style="color:#000000;fill:#ffee85;fill-rule:nonzero;stroke:none;enable-background:accumulate"
         inkscape:connector-curvature="0" />
      <path
         d="m 170.31,575.75 c -0.47,0.43 -1.08,0.9 -1.68,0.45 -0.99,-0.06 -1.97,0.15 -2.93,0.36 -0.72,0.2 -1.23,0.82 -1.48,1.5 -1.06,-0.52 -2.09,0.45 -2.55,1.34 -0.47,0.72 -0.95,1.52 -1.08,2.38 0.05,0.97 0.84,1.98 1.84,2.03 1,0.09 1.61,-1.28 2.62,-0.72 0.9,0.37 1.8,1.05 2.83,0.79 1.08,0.01 1.68,-1.25 2.74,-1.07 1.04,0.27 1.21,1.64 2.29,1.85 1.02,0.36 2.09,-0.18 2.87,-0.83 0.76,-0.61 1.67,-1.01 2.44,-1.61 0.83,-0.65 1.26,-1.81 0.95,-2.83 -0.31,-0.95 -1.01,-1.74 -1.79,-2.34 -0.75,-0.67 -1.78,-0.77 -2.74,-0.76 -1.07,0.01 -2.15,-0.12 -3.17,-0.45 -0.38,-0.05 -0.77,-0.19 -1.16,-0.09 z"
         id="path7729"
         style="color:#000000;fill:#000000;fill-opacity:0.186957;fill-rule:nonzero;stroke:none;enable-background:accumulate"
         inkscape:connector-curvature="0" />
    </g>
  </g>
</svg>
