<svg width="122.88" height="94.98" xmlns="http://www.w3.org/2000/svg" xml:space="preserve" version="1.1">

 <g>
  <title>Layer 1</title>
  <g id="svg_1">
   <path fill="#E6C36A" id="svg_2" clip-rule="evenodd" fill-rule="evenodd" d="m5.06,20.78l20.67,0c0.43,0 0.79,0.35 0.79,0.79l0,44.72c0,0.43 -0.35,0.79 -0.79,0.79l-20.68,0c-2.78,-0.01 -5.05,-2.28 -5.05,-5.06l0,-36.17c0,-2.79 2.28,-5.07 5.06,-5.07l0,0zm104.08,-19.72c5.01,7.08 8.82,15.04 11.14,23.57c2.24,8.22 3.1,16.97 2.33,25.94c-0.7,8.2 -2.7,15.99 -5.79,23.18c-2.59,6.03 -5.95,11.64 -9.93,16.7c-0.62,0.82 -1.25,1.63 -1.9,2.43l-0.05,-0.05c-0.31,0.36 -0.62,0.72 -0.94,1.07l-0.94,1.06l-0.92,-1.08l-3.73,-4.38l-0.69,-0.81l0.7,-0.8c4.54,-5.23 8.3,-11.2 11.06,-17.73c2.66,-6.29 4.39,-13.11 4.99,-20.29c0.68,-7.98 -0.08,-15.75 -2.06,-23.05c-1.83,-6.75 -4.7,-13.11 -8.44,-18.86l-0.02,-0.02c-0.68,-0.99 -1.39,-1.97 -2.13,-2.92l0.08,-0.07l-0.05,-0.07l0.97,-0.72l0.71,-0.53l2.71,-2.19l0.09,0.12l1.05,-0.78l1.02,-0.76l0.74,1.04l0,0zm-0.56,3.6c-0.25,-0.38 -0.49,-0.75 -0.75,-1.12l-0.03,0.02c0.27,0.36 0.53,0.73 0.78,1.1l0,0zm-15.83,7.53c3.68,5.28 6.47,11.21 8.17,17.55c1.64,6.12 2.26,12.61 1.7,19.27c-0.48,5.68 -1.8,11.11 -3.83,16.17c-2.1,5.23 -4.95,10.05 -8.4,14.32l-0.94,1.16l-0.97,-1.14l-4.72,-3.29l-0.66,-0.77l0.62,-0.8c2.91,-3.72 6.01,-7.87 7.77,-12.35c1.7,-4.33 2.1,-8.99 2.51,-13.88c0.5,-5.86 -0.04,-11.55 -1.47,-16.9c-1.34,-5.04 -3.48,-9.8 -6.27,-14.11c-0.37,-0.53 -0.75,-1.06 -1.15,-1.58l0.05,-0.04l-0.46,-0.66l0.96,-0.71l5.34,-2.53l1.03,-0.76l0.72,1.05l0,0zm-2.91,2.94l-0.31,-0.47l-0.02,0.01l0.33,0.46l0,0zm-58.84,4.83c12.04,-6.61 24.09,-13.22 36.13,-19.82c1.16,-0.63 2.4,1.08 2.4,2.4l0,82.04c0,1.39 -1.32,3.21 -2.53,2.53l-36,-20.31c-0.23,-0.13 -0.48,-0.21 -0.48,-0.48l0,-45.88c0,-0.27 0.25,-0.35 0.48,-0.48l0,0z" class="st0"/>
  </g>
 </g>
</svg>